<svg width="29" height="35" viewBox="0 0 29 35" fill="none" xmlns="http://www.w3.org/2000/svg">
<path d="M27.6151 12.4066C25.3211 13.8066 23.9042 16.2066 23.9042 18.8733C23.9042 21.8733 25.7259 24.6066 28.4922 25.74C27.9524 27.4733 27.1428 29.0733 26.1307 30.54C24.6464 32.6066 23.0946 34.74 20.8006 34.74C18.5066 34.74 17.8319 33.4066 15.1332 33.4066C12.5018 33.4066 11.5572 34.8066 9.39821 34.8066C7.23917 34.8066 5.75484 32.8733 4.06809 30.4733C1.84159 27.14 0.559657 23.2733 0.492188 19.2066C0.492188 12.6066 4.81026 9.07331 9.12833 9.07331C11.4223 9.07331 13.3115 10.54 14.7283 10.54C16.0777 10.54 18.2368 9.00664 20.8006 9.00664C23.4994 8.93997 26.0633 10.2066 27.6151 12.4066ZM19.5862 6.20664C20.7332 4.87331 21.3404 3.20664 21.4079 1.47331C21.4079 1.27331 21.4078 1.00664 21.3404 0.806641C19.3838 1.00664 17.5621 1.93997 16.2801 3.40664C15.1332 4.67331 14.4585 6.27331 14.391 8.00664C14.391 8.20664 14.391 8.40664 14.4585 8.60664C14.5934 8.60664 14.7958 8.67331 14.9307 8.67331C16.7524 8.53997 18.4392 7.60664 19.5862 6.20664Z" fill="black" style="fill:black;fill-opacity:1;"/>
</svg>
