<svg width="32" height="32" viewBox="0 0 32 32" fill="none" xmlns="http://www.w3.org/2000/svg">
<path d="M11.8667 6.46986C12.9867 6.46986 14.2133 6.82986 15.4533 7.54986L21.6267 11.1099C23.8 12.3765 25 14.1099 25 16.0032C25 17.8965 23.8 19.6299 21.6267 20.8832L15.4533 24.4432C13.28 25.6965 11.1867 25.8699 9.53333 24.9232C7.89333 23.9765 6.98667 22.0699 6.98667 19.5632V12.4432C6.98667 9.93653 7.89333 8.02986 9.53333 7.08319C10.24 6.66986 11.0267 6.46986 11.8667 6.46986ZM11.8667 23.5232C12.64 23.5232 13.52 23.2565 14.4533 22.7099L20.6267 19.1499C22.16 18.2699 23 17.1499 23 16.0032C23 14.8565 22.16 13.7365 20.6267 12.8565L14.4533 9.29653C12.92 8.41653 11.5333 8.2432 10.5333 8.81653C9.53333 9.38986 8.98667 10.6832 8.98667 12.4432V19.5632C8.98667 21.3232 9.53333 22.6165 10.5333 23.1899C10.9333 23.4165 11.3867 23.5232 11.8667 23.5232Z" fill="#212121" style="fill:#212121;fill:color(display-p3 0.1294 0.1294 0.1294);fill-opacity:1;"/>
</svg>
