<svg width="33" height="32" viewBox="0 0 33 32" fill="none" xmlns="http://www.w3.org/2000/svg">
<path d="M20.2271 25.537C19.1071 25.537 17.8804 25.177 16.6404 24.457L10.4671 20.897C8.29375 19.6303 7.09375 17.897 7.09375 16.0036C7.09375 14.1103 8.29375 12.377 10.4671 11.1236L16.6404 7.56364C18.8138 6.31031 20.9071 6.13698 22.5604 7.08364C24.2004 8.03031 25.1071 9.93697 25.1071 12.4436V19.5636C25.1071 22.0703 24.2004 23.977 22.5604 24.9236C21.8538 25.337 21.0671 25.537 20.2271 25.537ZM20.2271 8.48364C19.4538 8.48364 18.5738 8.75031 17.6404 9.29697L11.4671 12.857C9.93375 13.737 9.09375 14.857 9.09375 16.0036C9.09375 17.1503 9.93375 18.2703 11.4671 19.1503L17.6404 22.7103C19.1737 23.5903 20.5604 23.7636 21.5604 23.1903C22.5604 22.617 23.1071 21.3236 23.1071 19.5636V12.4436C23.1071 10.6836 22.5604 9.39031 21.5604 8.81698C21.1604 8.59031 20.7071 8.48364 20.2271 8.48364Z" fill="#212121" style="fill:#212121;fill:color(display-p3 0.1294 0.1294 0.1294);fill-opacity:1;"/>
</svg>
