<svg width="24" height="24" viewBox="0 0 24 24" fill="none" xmlns="http://www.w3.org/2000/svg">
<path d="M17.0075 12.73C17.5985 12.73 18.0775 12.2509 18.0775 11.66C18.0775 11.069 17.5985 10.59 17.0075 10.59C16.4166 10.59 15.9375 11.069 15.9375 11.66C15.9375 12.2509 16.4166 12.73 17.0075 12.73Z" stroke="white" style="stroke:white;stroke-opacity:1;" stroke-width="1.5" stroke-linecap="round" stroke-linejoin="round"/>
<path d="M20 6V7.78998C19.75 7.75998 19.46 7.73999 19.15 7.73999H14.87C12.73 7.73999 12.02 8.45003 12.02 10.59V15.7H6C2.8 15.7 2 14.9 2 11.7V6C2 2.8 2.8 2 6 2H16C19.2 2 20 2.8 20 6Z" stroke="white" style="stroke:white;stroke-opacity:1;" stroke-width="1.5" stroke-linecap="round" stroke-linejoin="round"/>
<path d="M9 15.7V20" stroke="white" style="stroke:white;stroke-opacity:1;" stroke-width="1.5" stroke-linecap="round" stroke-linejoin="round"/>
<path d="M2 11.9H12" stroke="white" style="stroke:white;stroke-opacity:1;" stroke-width="1.5" stroke-linecap="round" stroke-linejoin="round"/>
<path d="M5.95312 20H12.0031" stroke="white" style="stroke:white;stroke-opacity:1;" stroke-width="1.5" stroke-linecap="round" stroke-linejoin="round"/>
<path d="M17.0153 12.73C17.6063 12.73 18.0853 12.2509 18.0853 11.66C18.0853 11.069 17.6063 10.59 17.0153 10.59C16.4244 10.59 15.9453 11.069 15.9453 11.66C15.9453 12.2509 16.4244 12.73 17.0153 12.73Z" stroke="white" style="stroke:white;stroke-opacity:1;" stroke-width="1.5" stroke-miterlimit="10" stroke-linecap="round" stroke-linejoin="round"/>
<path d="M20.0034 7.78998C19.7534 7.75998 19.4634 7.73999 19.1534 7.73999H14.8734C12.7334 7.73999 12.0234 8.45003 12.0234 10.59V19.15C12.0234 21.29 12.7334 22 14.8734 22H19.1534C21.2934 22 22.0034 21.29 22.0034 19.15V10.59C22.0034 8.76003 21.4834 7.97998 20.0034 7.78998ZM17.0135 10.59C17.6035 10.59 18.0834 11.07 18.0834 11.66C18.0834 12.25 17.6035 12.73 17.0135 12.73C16.4235 12.73 15.9435 12.25 15.9435 11.66C15.9435 11.07 16.4235 10.59 17.0135 10.59ZM17.0135 19.15C15.8335 19.15 14.8734 18.19 14.8734 17.01C14.8734 16.52 15.0435 16.06 15.3235 15.7C15.7135 15.2 16.3235 14.87 17.0135 14.87C17.5535 14.87 18.0435 15.07 18.4135 15.39C18.8635 15.79 19.1534 16.37 19.1534 17.01C19.1534 18.19 18.1935 19.15 17.0135 19.15Z" stroke="white" style="stroke:white;stroke-opacity:1;" stroke-width="1.5" stroke-miterlimit="10" stroke-linecap="round" stroke-linejoin="round"/>
<path d="M19.155 17.01C19.155 18.19 18.195 19.15 17.015 19.15C15.835 19.15 14.875 18.19 14.875 17.01C14.875 16.52 15.045 16.06 15.325 15.7C15.715 15.2 16.325 14.87 17.015 14.87C17.555 14.87 18.045 15.07 18.415 15.39C18.865 15.79 19.155 16.37 19.155 17.01Z" stroke="white" style="stroke:white;stroke-opacity:1;" stroke-width="1.5" stroke-miterlimit="10" stroke-linecap="round" stroke-linejoin="round"/>
<path d="M17.0153 12.73C17.6063 12.73 18.0853 12.2509 18.0853 11.66C18.0853 11.069 17.6063 10.59 17.0153 10.59C16.4244 10.59 15.9453 11.069 15.9453 11.66C15.9453 12.2509 16.4244 12.73 17.0153 12.73Z" stroke="white" style="stroke:white;stroke-opacity:1;" stroke-width="1.5" stroke-miterlimit="10" stroke-linecap="round" stroke-linejoin="round"/>
</svg>
