<svg width="19" height="22" viewBox="0 0 19 22" fill="none" xmlns="http://www.w3.org/2000/svg">
<path d="M9.50253 10.9426C12.4638 10.9426 14.8645 8.71689 14.8645 5.97132C14.8645 3.22574 12.4638 1 9.50253 1C6.54122 1 4.14062 3.22574 4.14062 5.97132C4.14062 8.71689 6.54122 10.9426 9.50253 10.9426Z" stroke="#212121" style="stroke:#212121;stroke:color(display-p3 0.1294 0.1294 0.1294);stroke-opacity:1;" stroke-width="1.5" stroke-linecap="round" stroke-linejoin="round"/>
<path fill-rule="evenodd" clip-rule="evenodd" d="M1.00001 17.8565C0.998889 17.5079 1.08302 17.1625 1.24686 16.8472C1.75971 15.8952 3.20851 15.3906 4.41039 15.1617C5.27673 14.99 6.15543 14.8756 7.03973 14.8194C8.67702 14.6852 10.3233 14.6852 11.9606 14.8194C12.8438 14.8766 13.7224 14.9911 14.5899 15.1617C15.7918 15.3906 17.2394 15.8474 17.7534 16.8472C18.0822 17.4892 18.0822 18.2342 17.7534 18.8761C17.2394 19.876 15.7918 20.3327 14.5899 20.5523C13.7235 20.7302 12.8449 20.8488 11.9606 20.904C10.6274 21.009 9.28975 21.0278 7.95433 20.9612C7.64572 20.9612 7.34833 20.9612 7.03973 20.904C6.1588 20.8488 5.28231 20.7312 4.42046 20.5523C3.20848 20.3327 1.77093 19.876 1.24686 18.8761C1.08414 18.5577 1.00001 18.2092 1.00001 17.8565Z" stroke="#212121" style="stroke:#212121;stroke:color(display-p3 0.1294 0.1294 0.1294);stroke-opacity:1;" stroke-width="1.5" stroke-linecap="round" stroke-linejoin="round"/>
</svg>
