<svg width="17" height="18" viewBox="0 0 17 18" fill="none" xmlns="http://www.w3.org/2000/svg">
<path d="M3.88552 15.252C3.46615 15.252 3.07427 15.1076 2.7924 14.8395C2.4349 14.5026 2.26302 13.9938 2.3249 13.4438L2.57927 11.2163C2.6274 10.797 2.88177 10.2401 3.1774 9.9376L8.82177 3.96322C10.2311 2.47135 11.7024 2.4301 13.1943 3.83947C14.6861 5.24885 14.7274 6.7201 13.318 8.21197L7.67365 14.1863C7.3849 14.4957 6.84865 14.7845 6.42927 14.8532L4.21552 15.2313C4.09865 15.2382 3.99552 15.252 3.88552 15.252ZM11.0286 3.8326C10.4993 3.8326 10.0386 4.1626 9.57115 4.6576L3.92677 10.6388C3.78927 10.7832 3.63115 11.127 3.60365 11.3263L3.34927 13.5538C3.32177 13.7807 3.37677 13.9663 3.50052 14.0832C3.62427 14.2001 3.8099 14.2413 4.03677 14.207L6.25052 13.8288C6.4499 13.7945 6.7799 13.6157 6.9174 13.4713L12.5618 7.49697C13.4143 6.58947 13.7236 5.75072 12.4793 4.58197C11.9293 4.0526 11.4549 3.8326 11.0286 3.8326Z" fill="#38B6FF" style="fill:#38B6FF;fill:color(display-p3 0.2196 0.7137 1.0000);fill-opacity:1;"/>
<path d="M11.9965 9.36036C11.9828 9.36036 11.9621 9.36036 11.9484 9.36036C9.80338 9.14723 8.07775 7.51786 7.74775 5.38661C7.7065 5.10473 7.899 4.84348 8.18088 4.79536C8.46275 4.75411 8.724 4.94661 8.77213 5.22848C9.03338 6.89223 10.3809 8.17098 12.0584 8.33598C12.3403 8.36348 12.5465 8.61786 12.519 8.89973C12.4846 9.16098 12.2578 9.36036 11.9965 9.36036Z" fill="#38B6FF" style="fill:#38B6FF;fill:color(display-p3 0.2196 0.7137 1.0000);fill-opacity:1;"/>
</svg>
