<svg width="24" height="24" viewBox="0 0 24 24" fill="none" xmlns="http://www.w3.org/2000/svg">
<path d="M17.9981 7.16C17.9381 7.15 17.8681 7.15 17.8081 7.16C16.4281 7.11 15.3281 5.98 15.3281 4.58C15.3281 3.15 16.4781 2 17.9081 2C19.3381 2 20.4881 3.16 20.4881 4.58C20.4781 5.98 19.3781 7.11 17.9981 7.16Z" stroke="#212121" style="stroke:#212121;stroke:color(display-p3 0.1294 0.1294 0.1294);stroke-opacity:1;" stroke-width="1.2" stroke-linecap="round" stroke-linejoin="round"/>
<path d="M16.9675 14.44C18.3375 14.67 19.8475 14.43 20.9075 13.72C22.3175 12.78 22.3175 11.24 20.9075 10.3C19.8375 9.59004 18.3075 9.35003 16.9375 9.59003" stroke="#212121" style="stroke:#212121;stroke:color(display-p3 0.1294 0.1294 0.1294);stroke-opacity:1;" stroke-width="1.2" stroke-linecap="round" stroke-linejoin="round"/>
<path d="M5.96656 7.16C6.02656 7.15 6.09656 7.15 6.15656 7.16C7.53656 7.11 8.63656 5.98 8.63656 4.58C8.63656 3.15 7.48656 2 6.05656 2C4.62656 2 3.47656 3.16 3.47656 4.58C3.48656 5.98 4.58656 7.11 5.96656 7.16Z" stroke="#212121" style="stroke:#212121;stroke:color(display-p3 0.1294 0.1294 0.1294);stroke-opacity:1;" stroke-width="1.2" stroke-linecap="round" stroke-linejoin="round"/>
<path d="M6.9975 14.44C5.6275 14.67 4.1175 14.43 3.0575 13.72C1.6475 12.78 1.6475 11.24 3.0575 10.3C4.1275 9.59004 5.6575 9.35003 7.0275 9.59003" stroke="#212121" style="stroke:#212121;stroke:color(display-p3 0.1294 0.1294 0.1294);stroke-opacity:1;" stroke-width="1.2" stroke-linecap="round" stroke-linejoin="round"/>
<path d="M11.9981 14.63C11.9381 14.62 11.8681 14.62 11.8081 14.63C10.4281 14.58 9.32812 13.45 9.32812 12.05C9.32812 10.62 10.4781 9.46997 11.9081 9.46997C13.3381 9.46997 14.4881 10.63 14.4881 12.05C14.4781 13.45 13.3781 14.59 11.9981 14.63Z" stroke="#212121" style="stroke:#212121;stroke:color(display-p3 0.1294 0.1294 0.1294);stroke-opacity:1;" stroke-width="1.2" stroke-linecap="round" stroke-linejoin="round"/>
<path d="M9.08875 17.78C7.67875 18.72 7.67875 20.26 9.08875 21.2C10.6888 22.27 13.3087 22.27 14.9087 21.2C16.3187 20.26 16.3187 18.72 14.9087 17.78C13.3187 16.72 10.6888 16.72 9.08875 17.78Z" stroke="#212121" style="stroke:#212121;stroke:color(display-p3 0.1294 0.1294 0.1294);stroke-opacity:1;" stroke-width="1.2" stroke-linecap="round" stroke-linejoin="round"/>
</svg>
