<svg width="25" height="24" viewBox="0 0 25 24" fill="none" xmlns="http://www.w3.org/2000/svg">
<path d="M18.1992 18.8599H17.4392C16.6392 18.8599 15.8792 19.1699 15.3192 19.7299L13.6092 21.4199C12.8292 22.1899 11.5592 22.1899 10.7792 21.4199L9.06921 19.7299C8.50921 19.1699 7.73922 18.8599 6.94922 18.8599H6.19922C4.53922 18.8599 3.19922 17.5299 3.19922 15.8899V4.96988C3.19922 3.32988 4.53922 1.99988 6.19922 1.99988H18.1992C19.8592 1.99988 21.1992 3.32988 21.1992 4.96988V15.8799C21.1992 17.5199 19.8592 18.8599 18.1992 18.8599Z" stroke="#004AAD" style="stroke:#004AAD;stroke:color(display-p3 0.0000 0.2902 0.6784);stroke-opacity:1;" stroke-width="2.45335" stroke-miterlimit="10" stroke-linecap="round" stroke-linejoin="round"/>
<path d="M12.2703 8.95005C12.2303 8.95005 12.1702 8.95005 12.1202 8.95005C11.0702 8.91005 10.2402 8.06005 10.2402 7.00005C10.2402 5.92005 11.1102 5.05005 12.1902 5.05005C13.2702 5.05005 14.1403 5.93005 14.1403 7.00005C14.1503 8.06005 13.3203 8.92005 12.2703 8.95005Z" stroke="#004AAD" style="stroke:#004AAD;stroke:color(display-p3 0.0000 0.2902 0.6784);stroke-opacity:1;" stroke-width="2.45335" stroke-linecap="round" stroke-linejoin="round"/>
<path d="M9.44867 11.96C8.11867 12.85 8.11867 14.3 9.44867 15.19C10.9587 16.2 13.4387 16.2 14.9487 15.19C16.2787 14.3 16.2787 12.85 14.9487 11.96C13.4387 10.96 10.9687 10.96 9.44867 11.96Z" stroke="#004AAD" style="stroke:#004AAD;stroke:color(display-p3 0.0000 0.2902 0.6784);stroke-opacity:1;" stroke-width="2.45335" stroke-linecap="round" stroke-linejoin="round"/>
</svg>
