<svg width="22" height="23" viewBox="0 0 22 23" fill="none" xmlns="http://www.w3.org/2000/svg">
<path d="M5 6.75C4.40666 6.75 3.82664 6.57405 3.33329 6.24441C2.83994 5.91477 2.45542 5.44623 2.22836 4.89805C2.0013 4.34987 1.94189 3.74667 2.05764 3.16473C2.1734 2.58279 2.45912 2.04824 2.87868 1.62868C3.29824 1.20912 3.83279 0.923401 4.41473 0.807646C4.99667 0.69189 5.59987 0.7513 6.14805 0.978363C6.69623 1.20543 7.16476 1.58994 7.49441 2.08329C7.82405 2.57664 8 3.15666 8 3.75C8 4.54565 7.68393 5.30871 7.12132 5.87132C6.55871 6.43393 5.79565 6.75 5 6.75ZM5 2.25C4.70333 2.25 4.41332 2.33797 4.16664 2.5028C3.91997 2.66762 3.72771 2.90189 3.61418 3.17598C3.50065 3.45007 3.47094 3.75167 3.52882 4.04264C3.5867 4.33361 3.72956 4.60088 3.93934 4.81066C4.14912 5.02044 4.41639 5.1633 4.70736 5.22118C4.99834 5.27906 5.29994 5.24935 5.57403 5.13582C5.84811 5.02229 6.08238 4.83003 6.2472 4.58336C6.41203 4.33668 6.5 4.04667 6.5 3.75C6.5 3.35218 6.34196 2.97065 6.06066 2.68934C5.77936 2.40804 5.39782 2.25 5 2.25ZM17 6.75C16.4067 6.75 15.8266 6.57405 15.3333 6.24441C14.8399 5.91477 14.4554 5.44623 14.2284 4.89805C14.0013 4.34987 13.9419 3.74667 14.0576 3.16473C14.1734 2.58279 14.4591 2.04824 14.8787 1.62868C15.2982 1.20912 15.8328 0.923401 16.4147 0.807646C16.9967 0.69189 17.5999 0.7513 18.1481 0.978363C18.6962 1.20543 19.1648 1.58994 19.4944 2.08329C19.8241 2.57664 20 3.15666 20 3.75C20 4.54565 19.6839 5.30871 19.1213 5.87132C18.5587 6.43393 17.7956 6.75 17 6.75ZM17 2.25C16.7033 2.25 16.4133 2.33797 16.1666 2.5028C15.92 2.66762 15.7277 2.90189 15.6142 3.17598C15.5006 3.45007 15.4709 3.75167 15.5288 4.04264C15.5867 4.33361 15.7296 4.60088 15.9393 4.81066C16.1491 5.02044 16.4164 5.1633 16.7074 5.22118C16.9983 5.27906 17.2999 5.24935 17.574 5.13582C17.8481 5.02229 18.0824 4.83003 18.2472 4.58336C18.412 4.33668 18.5 4.04667 18.5 3.75C18.5 3.35218 18.342 2.97065 18.0607 2.68934C17.7794 2.40804 17.3978 2.25 17 2.25ZM18.5 22.5H15.5C15.1022 22.5 14.7206 22.342 14.4393 22.0607C14.158 21.7794 14 21.3978 14 21V15.75H15.5V21H18.5V14.25H20V9.75C20 9.55109 19.921 9.36032 19.7803 9.21967C19.6397 9.07902 19.4489 9 19.25 9H14.435L11 15L7.565 9H2.75C2.55109 9 2.36032 9.07902 2.21967 9.21967C2.07902 9.36032 2 9.55109 2 9.75V14.25H3.5V21H6.5V15.75H8V21C8 21.3978 7.84196 21.7794 7.56066 22.0607C7.27936 22.342 6.89782 22.5 6.5 22.5H3.5C3.10218 22.5 2.72064 22.342 2.43934 22.0607C2.15804 21.7794 2 21.3978 2 21V15.75C1.60218 15.75 1.22064 15.592 0.93934 15.3107C0.658035 15.0294 0.5 14.6478 0.5 14.25V9.75C0.5 9.15326 0.737053 8.58097 1.15901 8.15901C1.58097 7.73705 2.15326 7.5 2.75 7.5H8.435L11 12L13.565 7.5H19.25C19.8467 7.5 20.419 7.73705 20.841 8.15901C21.2629 8.58097 21.5 9.15326 21.5 9.75V14.25C21.5 14.6478 21.342 15.0294 21.0607 15.3107C20.7794 15.592 20.3978 15.75 20 15.75V21C20 21.3978 19.842 21.7794 19.5607 22.0607C19.2794 22.342 18.8978 22.5 18.5 22.5Z" fill="black" style="fill:black;fill-opacity:1;"/>
</svg>
