<svg width="24" height="24" viewBox="0 0 24 24" fill="none" xmlns="http://www.w3.org/2000/svg">
<path d="M14.2656 15.998H9.26562" stroke="#292D32" style="stroke:#292D32;stroke:color(display-p3 0.1608 0.1765 0.1961);stroke-opacity:1;" stroke-width="1.5" stroke-miterlimit="10" stroke-linecap="round" stroke-linejoin="round"/>
<path d="M12.6609 2.51814L12.6309 2.58814L9.73094 9.31814H6.88094C6.20094 9.31814 5.55094 9.45814 4.96094 9.70814L6.71094 5.52814L6.75094 5.42814L6.82094 5.26814C6.84094 5.20814 6.86094 5.14814 6.89094 5.09814C8.20094 2.06814 9.68094 1.37814 12.6609 2.51814Z" stroke="#292D32" style="stroke:#292D32;stroke:color(display-p3 0.1608 0.1765 0.1961);stroke-opacity:1;" stroke-width="1.5" stroke-linecap="round" stroke-linejoin="round"/>
<path d="M18.0466 9.51819C17.5966 9.37819 17.1166 9.31819 16.6366 9.31819H9.72656L12.6266 2.58819L12.6566 2.51819C12.8066 2.56819 12.9466 2.63819 13.0966 2.69819L15.3066 3.62819C16.5366 4.13819 17.3966 4.66819 17.9166 5.30819C18.0166 5.42819 18.0966 5.53819 18.1666 5.66819C18.2566 5.80819 18.3266 5.94819 18.3666 6.09819C18.4066 6.18819 18.4366 6.27819 18.4566 6.35819C18.7266 7.19819 18.5666 8.22819 18.0466 9.51819Z" stroke="#292D32" style="stroke:#292D32;stroke:color(display-p3 0.1608 0.1765 0.1961);stroke-opacity:1;" stroke-width="1.5" stroke-linecap="round" stroke-linejoin="round"/>
<path d="M21.5256 14.1984V16.1484C21.5256 16.3484 21.5156 16.5484 21.5056 16.7484C21.3156 20.2384 19.3656 21.9984 15.6656 21.9984H7.86563C7.62563 21.9984 7.38562 21.9784 7.15562 21.9484C3.97562 21.7384 2.27562 20.0384 2.06562 16.8584C2.03562 16.6284 2.01562 16.3884 2.01562 16.1484V14.1984C2.01562 12.1884 3.23563 10.4584 4.97563 9.70836C5.57563 9.45836 6.21563 9.31836 6.89563 9.31836H16.6556C17.1456 9.31836 17.6256 9.38836 18.0656 9.51836C20.0556 10.1284 21.5256 11.9884 21.5256 14.1984Z" stroke="#292D32" style="stroke:#292D32;stroke:color(display-p3 0.1608 0.1765 0.1961);stroke-opacity:1;" stroke-width="1.5" stroke-linecap="round" stroke-linejoin="round"/>
<path d="M6.71 5.52808L4.96 9.70808C3.22 10.4581 2 12.1881 2 14.1981V11.2681C2 8.42808 4.02 6.05808 6.71 5.52808Z" stroke="#292D32" style="stroke:#292D32;stroke:color(display-p3 0.1608 0.1765 0.1961);stroke-opacity:1;" stroke-width="1.5" stroke-linecap="round" stroke-linejoin="round"/>
<path d="M21.5225 11.2677V14.1977C21.5225 11.9977 20.0625 10.1277 18.0625 9.52766C18.5825 8.22766 18.7325 7.20766 18.4825 6.35766C18.4625 6.26766 18.4325 6.17766 18.3925 6.09766C20.2525 7.05766 21.5225 9.02766 21.5225 11.2677Z" stroke="#292D32" style="stroke:#292D32;stroke:color(display-p3 0.1608 0.1765 0.1961);stroke-opacity:1;" stroke-width="1.5" stroke-linecap="round" stroke-linejoin="round"/>
</svg>
